<svg viewBox="0 0 241 246" xmlns="http://www.w3.org/2000/svg">
<path id="Vector" d="M237.316 158.798C232.872 156.422 228.247 154.634 223.407 153.401C218.578 152.178 213.941 151.567 209.509 151.567C204.759 151.567 200.452 152.28 196.609 153.706C192.766 155.132 189.512 157.124 186.86 159.692C184.207 162.261 182.144 165.35 180.682 168.949C179.22 172.547 178.483 176.565 178.483 180.989C178.483 185.414 179.174 189.08 180.568 191.966C181.951 194.851 183.777 197.25 186.032 199.14C188.288 201.041 190.861 202.558 193.752 203.712C196.643 204.855 199.59 205.907 202.605 206.858C205.145 207.729 207.298 208.521 209.078 209.234C210.858 209.947 212.309 210.716 213.42 211.543C214.531 212.369 215.324 213.285 215.8 214.27C216.276 215.265 216.514 216.431 216.514 217.766C216.514 219.984 215.585 221.953 213.726 223.696C211.867 225.439 209.033 226.31 205.224 226.31C201.903 226.31 198.524 225.563 195.124 224.058C191.712 222.553 188.266 220.267 184.785 217.178L174.799 235.917C184.468 242.639 194.965 246 206.29 246C211.753 246 216.65 245.264 220.969 243.805C225.288 242.345 228.927 240.285 231.897 237.637C234.867 234.989 237.123 231.81 238.676 228.087C240.218 224.375 240.989 220.222 240.989 215.628C240.989 208.827 239.22 203.304 235.695 199.084C232.169 194.851 226.603 191.468 218.997 188.944C217.093 188.311 215.177 187.722 213.238 187.168C211.3 186.613 209.554 185.957 208.013 185.21C206.471 184.463 205.224 183.569 204.272 182.539C203.32 181.51 202.843 180.208 202.843 178.624C202.843 176.327 203.796 174.471 205.7 173.045C207.604 171.619 210.053 170.907 213.068 170.907C215.449 170.907 217.897 171.404 220.437 172.389C222.976 173.385 225.504 174.901 228.043 176.961L237.316 158.81V158.798ZM121.565 213.851H135.35C145.416 213.851 153.113 211.237 158.464 206.02C163.814 200.804 166.489 193.448 166.489 183.954C166.489 174.46 163.814 167.104 158.464 161.888C153.113 156.671 145.405 154.057 135.35 154.057H98.2703V243.51H121.565V213.851ZM121.565 172.796H129.285C137.844 172.796 142.117 176.519 142.117 183.943C142.117 191.366 137.844 195.089 129.285 195.089H121.565V172.785V172.796Z" fill="black"/>
<path id="Vector_2" d="M35.98 42.8766V71.3478C35.98 78.6354 35.8439 85.8097 35.5605 92.871C35.2885 99.9322 34.9824 106.892 34.6537 113.726C37.1929 113.5 39.9022 113.398 42.7815 113.398C45.6608 113.398 48.3587 113.511 50.9093 113.726C50.5805 106.88 50.2745 99.9322 49.9911 92.871C49.719 85.8097 49.5716 78.6354 49.5716 71.3478V42.8766C49.5716 31.4021 49.7417 19.9729 50.0704 8.61153C52.9384 8.61153 55.9537 8.64548 59.1051 8.69074C62.2564 8.74732 65.4078 8.86048 68.5592 9.01891C71.7105 9.18865 74.7485 9.38102 77.6732 9.59603C80.5978 9.82235 83.2277 10.0939 85.5516 10.4221C84.9961 8.43047 84.7241 6.72174 84.7241 5.29592C84.7241 3.97194 84.9961 2.20663 85.5516 0C78.2513 0.226321 71.1211 0.407378 64.1609 0.577119C57.2007 0.74686 50.0704 0.826073 42.7701 0.826073C35.4698 0.826073 28.3396 0.74686 21.3794 0.577119C14.4305 0.418695 7.30028 0.226321 0 0C0.555456 2.20663 0.827516 3.91536 0.827516 5.12618C0.827516 6.67648 0.54412 8.44179 0 10.4221C2.32385 10.0939 4.94243 9.82235 7.87841 9.59603C10.8031 9.38102 13.8524 9.17733 17.0038 9.01891C20.1551 8.84917 23.3065 8.74732 26.4579 8.69074C29.6092 8.63416 32.6246 8.61153 35.4925 8.61153C35.8213 19.9842 35.9913 31.4021 35.9913 42.8766" fill="black"/>
<g transform="translate(3.76, 126.25)">
<path id="Vector" d="M29.3825 41.0547L0 70.3859L5.87197 76.2477L35.2545 46.9164H41.1264L5.87197 105.568V111.429L11.7439 117.291H23.4992L35.2545 111.429L64.637 82.0981L58.765 76.2363L29.3825 105.568H23.5105L58.765 46.9164V41.0547L47.0097 35.193L29.3825 41.0547ZM58.7537 0L52.8817 11.7348V17.5965L64.637 23.4582H70.5089L76.3809 11.7234V5.86172L64.6256 0H58.7537Z" fill="black"/>
</g></svg>